<svg class="darkmode-icon icon-light" width="24" height="24" viewBox="0 0 24 24" xmlns="http://www.w3.org/2000/svg">
    <path d="M12 9c1.65 0 3 1.35 3 3s-1.35 3-3 3-3-1.35-3-3 1.35-3 3-3zm0-2c-2.76 0-5 2.24-5 5s2.24 5 5 5 5-2.24 5-5-2.24-5-5-5zM2 13h2c.55 0 1-.45 1-1s-.45-1-1-1H2c-.55 0-1 .45-1 1s.45 1 1 1zm18 0h2c.55 0 1-.45 1-1s-.45-1-1-1h-2c-.55 0-1 .45-1 1s.45 1 1 1zM11 2v2c0 .55.45 1 1 1s1-.45 1-1V2c0-.55-.45-1-1-1s-1 .45-1 1zm0 18v2c0 .55.45 1 1 1s1-.45 1-1v-2c0-.55-.45-1-1-1s-1 .45-1 1zM5.99 4.58a.996.996 0 10-1.41 1.41l1.06 1.06c.39.39 1.03.39 1.41 0 .38-.39.39-1.03 0-1.41L5.99 4.58zm12.37 12.37a.994.994 0 00-1.41 0 .994.994 0 000 1.41l1.06 1.06a.996.996 0 101.41-1.41l-1.06-1.06zm1.06-10.96a.995.995 0 000-1.41.996.996 0 00-1.41 0l-1.06 1.06a.996.996 0 000 1.41c.39.38 1.03.39 1.41 0l1.06-1.06zM7.05 18.36a.996.996 0 00-1.087-1.626.995.995 0 00-.323.216l-1.06 1.06a.996.996 0 000 1.41c.39.38 1.03.39 1.41 0l1.06-1.06z">
</svg>