<svg class="logo" width="100" height="24" viewBox="0 0 100 24" xmlns="http://www.w3.org/2000/svg">
    <path d="M13.746 18.104c-.144.12-.414.282-.81.486a7.071 7.071 0 01-1.422.54 6.576 6.576 0 01-1.872.216c-1.044-.024-1.98-.21-2.808-.558a6.347 6.347 0 01-2.088-1.458 6.446 6.446 0 01-1.296-2.106A7.105 7.105 0 013 12.686c0-1.344.27-2.532.81-3.564a6.109 6.109 0 012.25-2.43c.972-.588 2.1-.882 3.384-.882.888 0 1.674.12 2.358.36.684.24 1.242.498 1.674.774L12.45 9.41c-.3-.228-.702-.462-1.206-.702-.492-.252-1.062-.378-1.71-.378-.672 0-1.302.186-1.89.558A4.262 4.262 0 006.24 10.4c-.348.624-.522 1.338-.522 2.142 0 .852.162 1.602.486 2.25a3.622 3.622 0 001.386 1.494c.6.36 1.302.54 2.106.54.708 0 1.314-.114 1.818-.342.504-.228.888-.468 1.152-.72l1.08 2.34zm1.589-2.934c0-.804.186-1.524.558-2.16a4.011 4.011 0 011.602-1.494c.684-.372 1.47-.558 2.358-.558.9 0 1.68.186 2.34.558.66.36 1.164.858 1.512 1.494.36.636.54 1.356.54 2.16s-.18 1.53-.54 2.178a3.818 3.818 0 01-1.512 1.512c-.66.372-1.452.558-2.376.558-.864 0-1.638-.168-2.322-.504a3.794 3.794 0 01-1.584-1.458c-.384-.636-.576-1.398-.576-2.286zm2.538.018c0 .624.18 1.146.54 1.566.36.408.816.612 1.368.612.588 0 1.056-.204 1.404-.612.348-.42.522-.942.522-1.566 0-.624-.174-1.14-.522-1.548-.348-.42-.816-.63-1.404-.63-.552 0-1.008.21-1.368.63-.36.408-.54.924-.54 1.548zM26.23 5h2.52v14.202h-2.52V5zm4.503 10.17c0-.804.186-1.524.558-2.16a4.011 4.011 0 011.602-1.494c.684-.372 1.47-.558 2.358-.558.9 0 1.68.186 2.34.558.66.36 1.164.858 1.512 1.494.36.636.54 1.356.54 2.16s-.18 1.53-.54 2.178a3.818 3.818 0 01-1.512 1.512c-.66.372-1.452.558-2.376.558-.864 0-1.638-.168-2.322-.504a3.794 3.794 0 01-1.584-1.458c-.384-.636-.576-1.398-.576-2.286zm2.538.018c0 .624.18 1.146.54 1.566.36.408.816.612 1.368.612.588 0 1.056-.204 1.404-.612.348-.42.522-.942.522-1.566 0-.624-.174-1.14-.522-1.548-.348-.42-.816-.63-1.404-.63-.552 0-1.008.21-1.368.63-.36.408-.54.924-.54 1.548zm10.625-3.852l.198 1.8c.228-.456.54-.846.936-1.17a4.817 4.817 0 011.17-.756c.384-.18.678-.27.882-.27l-.126 2.52c-.588-.072-1.092.024-1.512.288-.42.264-.744.612-.972 1.044a2.821 2.821 0 00-.342 1.332v3.078h-2.502v-7.866h2.268zm16.275 6.534c-.156.168-.402.342-.738.522a8.47 8.47 0 01-1.17.468 9.849 9.849 0 01-1.332.342 6.3 6.3 0 01-1.296.144c-1.428 0-2.67-.276-3.726-.828-1.056-.552-1.872-1.308-2.448-2.268-.564-.96-.846-2.058-.846-3.294 0-1.212.18-2.262.54-3.15.372-.9.87-1.644 1.494-2.232a6.101 6.101 0 012.178-1.332 7.833 7.833 0 012.592-.432c.852 0 1.632.096 2.34.288.708.18 1.308.408 1.8.684l-.846 2.43a5.224 5.224 0 00-.864-.36 8.69 8.69 0 00-1.098-.288 4.556 4.556 0 00-.99-.126c-1.428 0-2.526.36-3.294 1.08-.768.708-1.152 1.776-1.152 3.204 0 .828.186 1.542.558 2.142.372.6.888 1.062 1.548 1.386.672.324 1.434.486 2.286.486.372 0 .714-.024 1.026-.072.312-.06.576-.15.792-.27v-1.602H55.24v-2.52h4.932v5.598zm5.09 1.71c-.709 0-1.303-.216-1.783-.648-.48-.444-.732-1.014-.756-1.71v-5.886h2.52v4.95c.024.348.114.63.27.846.156.204.42.306.792.306.564 0 1.008-.27 1.332-.81.324-.552.486-1.248.486-2.088v-3.204h2.52v7.866h-2.286l-.18-1.26a3.078 3.078 0 01-1.134 1.188c-.492.3-1.086.45-1.782.45zm11.843-.162c-.96 0-1.776-.18-2.448-.54a3.701 3.701 0 01-1.512-1.494c-.348-.636-.522-1.368-.522-2.196 0-.792.204-1.506.612-2.142a4.416 4.416 0 011.638-1.512c.684-.384 1.446-.576 2.286-.576 1.128 0 2.052.33 2.772.99.732.648 1.206 1.59 1.422 2.826l-5.76 1.836c.384.444.906.666 1.566.666.276 0 .54-.048.792-.144a4.19 4.19 0 00.774-.378l1.116 1.872c-.42.24-.876.432-1.368.576-.48.144-.936.216-1.368.216zm-1.998-4.374v.162l3.456-1.17a1.887 1.887 0 00-.522-.774c-.24-.228-.6-.342-1.08-.342-.564 0-1.014.192-1.35.576-.336.384-.504.9-.504 1.548zm10.633 4.32a4.805 4.805 0 01-1.818-.342 3.992 3.992 0 01-1.404-.954l1.044-1.386c.384.348.738.6 1.062.756.336.144.636.216.9.216.312 0 .57-.048.774-.144.204-.096.306-.252.306-.468a.567.567 0 00-.252-.486 1.815 1.815 0 00-.612-.288 22.41 22.41 0 00-.81-.252c-.72-.228-1.242-.558-1.566-.99a2.455 2.455 0 01-.468-1.44c0-.396.102-.792.306-1.188.216-.408.552-.744 1.008-1.008.468-.276 1.068-.414 1.8-.414.66 0 1.218.066 1.674.198.456.132.888.348 1.296.648l-.954 1.476a3.272 3.272 0 00-.774-.45 2.044 2.044 0 00-.774-.216c-.324-.012-.576.048-.756.18-.18.12-.27.264-.27.432a.592.592 0 00.252.54c.192.132.432.234.72.306.288.072.57.156.846.252.564.192 1.014.468 1.35.828.336.348.504.816.504 1.404 0 .48-.126.936-.378 1.368-.24.42-.612.762-1.116 1.026-.492.264-1.122.396-1.89.396zm8.05 0a4.805 4.805 0 01-1.817-.342 3.992 3.992 0 01-1.404-.954l1.044-1.386c.384.348.738.6 1.062.756.336.144.636.216.9.216.312 0 .57-.048.774-.144.204-.096.306-.252.306-.468a.567.567 0 00-.252-.486 1.815 1.815 0 00-.612-.288 22.41 22.41 0 00-.81-.252c-.72-.228-1.242-.558-1.566-.99a2.455 2.455 0 01-.468-1.44c0-.396.102-.792.306-1.188.216-.408.552-.744 1.008-1.008.468-.276 1.068-.414 1.8-.414.66 0 1.218.066 1.674.198.456.132.888.348 1.296.648l-.954 1.476a3.272 3.272 0 00-.774-.45 2.044 2.044 0 00-.774-.216c-.324-.012-.576.048-.756.18-.18.12-.27.264-.27.432a.592.592 0 00.252.54c.192.132.432.234.72.306.288.072.57.156.846.252.564.192 1.014.468 1.35.828.336.348.504.816.504 1.404 0 .48-.126.936-.378 1.368-.24.42-.612.762-1.116 1.026-.492.264-1.122.396-1.89.396z"/>
</svg>